<svg xmlns="http://www.w3.org/2000/svg" xmlns:xlink="http://www.w3.org/1999/xlink" width="794" zoomAndPan="magnify" viewBox="0 0 595.5 595.499986" height="794" preserveAspectRatio="xMidYMid meet" version="1.0"><defs><clipPath id="cba0c61a52"><path d="M 0 0 L 595 0 L 595 595 L 0 595 Z M 0 0 " clip-rule="nonzero"/></clipPath><clipPath id="d7d1259557"><rect x="0" width="595" y="0" height="595"/></clipPath></defs><path fill="#ffffff" d="M 0 0 L 595 0 L 595 595 L 0 595 Z M 0 0 " fill-opacity="1" fill-rule="nonzero"/><g transform="matrix(1, 0, 0, 1, 0, 0)"><g clip-path="url(#d7d1259557)"><g clip-path="url(#cba0c61a52)"><rect x="-131.01" width="857.52" fill="#ffffff" height="857.51998" y="-131.009997" fill-opacity="1"/></g><path fill="#000000" d="M 136.007812 206.585938 C 146.46875 206.585938 155.039062 214.527344 156.046875 224.671875 L 156.238281 228.832031 C 157.308594 238.980469 165.878906 246.917969 176.339844 246.917969 L 289.203125 246.917969 L 377.996094 284.980469 L 377.996094 438.492188 C 377.996094 449.648438 368.984375 458.660156 357.832031 458.660156 L 337.664062 458.660156 C 326.511719 458.660156 317.5 449.648438 317.5 438.492188 L 317.5 355.75 C 302.375 363.5 285.234375 367.914062 267.085938 367.914062 C 248.9375 367.914062 231.792969 363.5 216.671875 355.75 L 216.671875 438.492188 C 216.671875 449.648438 207.660156 458.660156 196.503906 458.660156 L 176.339844 458.660156 C 165.183594 458.660156 156.171875 449.648438 156.171875 438.492188 L 156.171875 283.722656 C 132.667969 275.402344 115.84375 253.09375 115.84375 226.753906 C 115.84375 215.597656 124.855469 206.585938 136.007812 206.585938 Z M 340.058594 115.84375 C 344.910156 115.84375 349.449219 118.109375 352.410156 122.019531 L 362.871094 136.007812 L 395.703125 136.007812 C 403.707031 136.007812 411.394531 139.222656 417.066406 144.894531 L 428.410156 156.171875 L 463.699219 156.171875 C 472.082031 156.171875 478.824219 162.917969 478.824219 171.296875 L 478.824219 186.421875 C 478.824219 214.277344 456.265625 236.835938 428.410156 236.835938 L 388.078125 236.835938 L 383.667969 254.480469 L 305.085938 220.828125 L 324.996094 128.066406 C 326.511719 120.945312 332.75 115.84375 340.058594 115.84375 Z M 398.160156 163.734375 C 391.230469 163.734375 385.558594 169.40625 385.558594 176.339844 C 385.558594 183.269531 391.230469 188.941406 398.160156 188.941406 C 405.09375 188.941406 410.765625 183.269531 410.765625 176.339844 C 410.765625 169.40625 405.09375 163.734375 398.160156 163.734375 Z M 398.160156 163.734375 " fill-opacity="1" fill-rule="nonzero"/></g></g></svg>